<svg id="Layer_1" data-name="Layer 1" xmlns="http://www.w3.org/2000/svg" xmlns:xlink="http://www.w3.org/1999/xlink" viewBox="0 0 1000 1000"><defs><style>.cls-1{fill:url(#linear-gradient);}.cls-2{fill:url(#linear-gradient-2);}.cls-3{fill:url(#linear-gradient-3);}.cls-4{fill:url(#linear-gradient-4);}.cls-5{fill:url(#linear-gradient-5);}.cls-6{fill:url(#linear-gradient-6);}.cls-7{fill:url(#linear-gradient-7);}.cls-8{fill:url(#linear-gradient-8);}.cls-9{fill:url(#linear-gradient-9);}.cls-10{fill:url(#linear-gradient-10);}.cls-11{fill:url(#linear-gradient-11);}.cls-12{fill:url(#linear-gradient-12);}.cls-13{fill:url(#linear-gradient-13);}.cls-14{fill:url(#linear-gradient-14);}.cls-15{fill:url(#linear-gradient-15);}.cls-16{fill:url(#linear-gradient-16);}.cls-17{fill:url(#linear-gradient-17);}</style><linearGradient id="linear-gradient" x1="514.95" y1="909.91" x2="514.95" y2="537.02" gradientUnits="userSpaceOnUse"><stop offset="0" stop-color="#23456d"/><stop offset="0.01" stop-color="#214871"/><stop offset="0.1" stop-color="#165687"/><stop offset="0.2" stop-color="#0e6198"/><stop offset="0.33" stop-color="#0869a3"/><stop offset="0.51" stop-color="#056eaa"/><stop offset="1" stop-color="#046fac"/></linearGradient><linearGradient id="linear-gradient-2" x1="828" y1="718.79" x2="828" y2="588.56" xlink:href="#linear-gradient"/><linearGradient id="linear-gradient-3" x1="216" y1="774.86" x2="216" y2="668.23" xlink:href="#linear-gradient"/><linearGradient id="linear-gradient-4" x1="506.56" y1="254.56" x2="529.19" y2="659.59" gradientUnits="userSpaceOnUse"><stop offset="0" stop-color="#00b4ea"/><stop offset="1" stop-color="#237cc1"/></linearGradient><linearGradient id="linear-gradient-5" x1="502.3" y1="119.65" x2="502.3" y2="198.1" xlink:href="#linear-gradient-4"/><linearGradient id="linear-gradient-6" x1="718.85" y1="384.59" x2="615.52" y2="633.5" xlink:href="#linear-gradient-4"/><linearGradient id="linear-gradient-7" x1="759.39" y1="281.65" x2="759.39" y2="342.07" xlink:href="#linear-gradient-4"/><linearGradient id="linear-gradient-8" x1="298.9" y1="470.62" x2="512.35" y2="678.04" xlink:href="#linear-gradient-4"/><linearGradient id="linear-gradient-9" x1="244.34" y1="382.72" x2="244.34" y2="441.86" xlink:href="#linear-gradient-4"/><linearGradient id="linear-gradient-10" x1="500" y1="170.18" x2="500" y2="25.62" gradientUnits="userSpaceOnUse"><stop offset="0" stop-color="#dc2028"/><stop offset="0.05" stop-color="#e12c27"/><stop offset="0.16" stop-color="#e83d25"/><stop offset="0.29" stop-color="#ec4824"/><stop offset="0.48" stop-color="#ef4f23"/><stop offset="1" stop-color="#f05123"/></linearGradient><linearGradient id="linear-gradient-11" x1="449.62" y1="971.79" x2="506.26" y2="445.19" gradientUnits="userSpaceOnUse"><stop offset="0" stop-color="#f05123"/><stop offset="1" stop-color="#dc2028"/></linearGradient><linearGradient id="linear-gradient-12" x1="141.96" y1="230.09" x2="141.96" y2="191.25" xlink:href="#linear-gradient-10"/><linearGradient id="linear-gradient-13" x1="81.41" y1="323.1" x2="81.41" y2="284.26" xlink:href="#linear-gradient-10"/><linearGradient id="linear-gradient-14" x1="44.57" y1="437.15" x2="44.57" y2="398.31" xlink:href="#linear-gradient-10"/><linearGradient id="linear-gradient-15" x1="850.57" y1="228.75" x2="850.57" y2="189.9" xlink:href="#linear-gradient-10"/><linearGradient id="linear-gradient-16" x1="913.13" y1="325.79" x2="913.13" y2="286.94" xlink:href="#linear-gradient-10"/><linearGradient id="linear-gradient-17" x1="946.57" y1="441.25" x2="946.57" y2="402.41" xlink:href="#linear-gradient-10"/></defs><path class="cls-1" d="M935.56,537.63c-22.26,7.59-34.64,24.18-38.15,46.63-3,19.41-7.13,38.15-18.28,54.51a333.37,333.37,0,0,1-24.61,32.15c-21.32,24.42-45.46,45.23-76.49,56.62-16,5.91-32.34,9.52-50.52,6.89,2.2-2.44,3.7-4.17,5.29-5.86a121.44,121.44,0,0,0,28.69-50.76c6-21-2.25-45.69-18.33-56.15-9.51-6.18-15.09-3.79-17.67,7.13a83.5,83.5,0,0,1-5.72,17.29c-17.25,34.73-45.23,58.17-79.68,74.48-26.24,12.42-46.35,30.51-55.3,59.05a37,37,0,0,0-1.88,10.92c-39,34.12-98.19,20.86-98.19,20.86a34.87,34.87,0,0,0-5-17.39c-14.85-26-38.29-39.37-66.6-45.93-37.16-8.62-69.5-25.54-93.69-55.82a80.59,80.59,0,0,1-9.28-15.7c-4.87-10.13-10.83-11.25-18.84-3.19-13.45,13.64-16.17,39.51-5.91,58.77a121,121,0,0,0,38.81,43.5c1.92,1.31,3.8,2.67,6.42,4.59-17.2,6.42-33.93,6.38-50.8,4-32.76-4.54-60.79-19.73-86.8-39A341.43,341.43,0,0,1,162.17,719c-14.34-13.59-22.36-31-29.48-49.35-7.41-19.17-20.91-32.11-40.69-36.37a440.92,440.92,0,0,0,653.36,203,31098885119.78,31098885119.78,0,0,1,.1-.1h0a437,437,0,0,0,61.68-49.35l.05,0a445.53,445.53,0,0,0,61-72.6A437.91,437.91,0,0,0,937.9,537,13.42,13.42,0,0,0,935.56,537.63Z"/><path class="cls-2" d="M786.07,712.8C824,692.67,855,665.46,873,625.56a152.38,152.38,0,0,0,8.76-24.64c2.22-8.6-3.43-13.75-12.23-12a30.42,30.42,0,0,0-7.47,2.56c-13.55,6.59-19.64,18.78-23.62,32.32-7.06,24-18.1,45.85-35.27,64.23-9.52,10.2-19.59,19.89-29.41,29.8l.37,1C778.11,716.8,782.14,714.88,786.07,712.8Z"/><path class="cls-3" d="M165.34,704.81C191.46,740,227.47,760,268.84,771.55c4.29,1.2,8.63,2.21,13,3.31l.15-1c-11.71-7.6-23.6-14.93-35.08-22.86-20.69-14.3-36.12-33.29-48.13-55.25-6.77-12.39-15.32-23-30-26.56a30.51,30.51,0,0,0-7.84-.91c-9,.19-13.39,6.42-9.4,14.36A152.4,152.4,0,0,0,165.34,704.81Z"/><path class="cls-4" d="M560.77,673.07l-.26-.31A353.07,353.07,0,0,1,506,586.22c-31.87-71.88-55.08-160-60.8-182.53L488,578.08c-155.78-230.29-93.12-365.39-93.12-365.39,96.92,85.94,233.12,1.8,236,0C477.25,513.24,560.77,673.07,560.77,673.07Z"/><circle class="cls-5" cx="502.3" cy="158.82" r="38.3"/><path class="cls-6" d="M816.51,399.27c-211.1,129.2-220,261.13-220,261.13l0-.29a259.55,259.55,0,0,1-1.06-74.21c7.36-56.22,26.1-119.34,31.62-137.22L587.32,573.11h0C578,369.48,668.91,309,668.91,309,696.94,400.76,816.51,399.27,816.51,399.27Z"/><circle class="cls-7" cx="759.39" cy="312.01" r="28.09"/><path class="cls-8" d="M524.68,674.64a254.88,254.88,0,0,1-70.58-21.85c-52.26-24.9-107.73-63.39-121.72-73.32l106.89,76.92C242.75,602.15,213.4,497,213.4,497,309.35,498.74,345,384.6,345,384.6c56.51,237,176.22,288.54,180,290.09Z"/><circle class="cls-9" cx="244.34" cy="411.86" r="28.09"/><path class="cls-10" d="M200,170.18a16.32,16.32,0,0,1-10.71-28.65,474.4,474.4,0,0,1,621.42,0,16.32,16.32,0,1,1-21.4,24.65,441.73,441.73,0,0,0-578.62,0A16.28,16.28,0,0,1,200,170.18Z"/><path class="cls-11" d="M976.44,500c-30.57,642.52-936.16,623.92-952.88-4.25,7.12,144.1,76.05,272.58,190,359,221.41,167.53,528.55,104.4,675.54-106.17a0,0,0,0,0,0,0,473.5,473.5,0,0,0,86.82-252.82A18.12,18.12,0,0,1,976.44,500Z"/><polygon class="cls-12" points="141.96 191.25 146.78 206.08 162.38 206.08 149.76 215.25 154.58 230.09 141.96 220.92 129.34 230.09 134.16 215.25 121.54 206.08 137.14 206.08 141.96 191.25"/><polygon class="cls-13" points="81.41 284.26 86.23 299.1 101.83 299.1 89.21 308.26 94.03 323.1 81.41 313.93 68.79 323.1 73.61 308.26 60.99 299.1 76.59 299.1 81.41 284.26"/><polygon class="cls-14" points="44.57 398.31 49.39 413.15 64.99 413.15 52.37 422.32 57.19 437.15 44.57 427.98 31.95 437.15 36.77 422.32 24.15 413.15 39.75 413.15 44.57 398.31"/><polygon class="cls-15" points="850.57 189.9 845.75 204.74 830.15 204.74 842.77 213.91 837.95 228.75 850.57 219.58 863.19 228.75 858.37 213.91 870.99 204.74 855.39 204.74 850.57 189.9"/><polygon class="cls-16" points="913.13 286.94 908.31 301.78 892.71 301.78 905.33 310.95 900.51 325.79 913.13 316.62 925.75 325.79 920.93 310.95 933.55 301.78 917.96 301.78 913.13 286.94"/><polygon class="cls-17" points="946.57 402.41 941.75 417.25 926.15 417.25 938.77 426.42 933.95 441.25 946.57 432.08 959.19 441.25 954.37 426.42 966.99 417.25 951.39 417.25 946.57 402.41"/></svg>